# xmcd CD database file
#
# Track frame offsets:
#	150
#	20373
#	40056
#	66003
#	89493
#	105153
#	128508
#	146409
#	170952
#	191931
#	217284
#	236427
#
# Disc length: 3470 seconds
#
# Revision: 0
# Processed by: cddbd v1.5.1PL0 Copyright (c) Steve Scherf et al.
# Submitted via: CDex 1.50
#
DISCID=a80d8c0c
DTITLE=Jack Brokensha Quartet - Blame It On My Youth
DYEAR=1900
DGENRE=Jazz
TTITLE0=What Am I Here For
TTITLE1=Nina Never Knew
TTITLE2=Blame It On My Youth
TTITLE3=You Must Remember Spring
TTITLE4=Deal Me In
TTITLE5=Mill Stream
TTITLE6=Love You Madly
TTITLE7=Django
TTITLE8=Dolphin Danc
TTITLE9=I Remember Clifford
TTITLE10=Spring Of Knowledge
TTITLE11=Nightingale Sang In Berkley Square
EXTD=
EXTT0=
EXTT1=
EXTT2=
EXTT3=
EXTT4=
EXTT5=
EXTT6=
EXTT7=
EXTT8=
EXTT9=
EXTT10=
EXTT11=
PLAYORDER=
